ply
format ascii 1.0
comment  
element vertex 298
property float x
property float y
property float z
element face 492
property list uchar int vertex_indices
end_header
-0.066502 -0.033507 -0.030199
-0.066502 -0.033507 0.019804
-0.066502 -0.004213 0.019804
-0.066502 -0.004213 -0.030199
0.066502 -0.033507 -0.030199
0.066502 -0.004213 -0.030199
0.066502 -0.004213 0.019804
0.066502 -0.033507 0.019804
-0.082684 0.003583 -0.065989
0.082684 0.003583 -0.065989
0.082684 0.003583 -0.115994
-0.082684 0.003583 -0.115994
0.082684 -0.025711 -0.115994
-0.082684 -0.025711 -0.115994
-0.082684 -0.025711 -0.065989
0.082684 -0.025711 -0.065989
-0.071698 -0.052996 -0.182298
-0.071698 -0.052996 -0.132294
-0.071698 -0.023703 -0.132294
-0.071698 -0.023703 -0.182298
0.071698 -0.052996 -0.182298
0.071698 -0.023703 -0.182298
0.071698 -0.023703 -0.132294
0.071698 -0.052996 -0.132294
0.062801 -0.084889 -0.273328
0.037483 -0.048902 -0.243091
-0.037484 -0.048902 -0.243091
-0.062800 -0.084889 -0.273328
-0.074218 -0.136901 -0.375423
-0.011615 -0.157611 -0.487519
0.011615 -0.157611 -0.487519
0.074218 -0.136901 -0.375423
-0.062800 0.035003 -0.310812
0.062801 0.035003 -0.310812
0.073510 0.001182 -0.426805
-0.073510 0.001182 -0.426805
-0.011615 -0.135523 -0.494409
0.011615 -0.135523 -0.494409
0.037483 0.022718 -0.265494
-0.037484 0.022718 -0.265494
-0.065596 0.055910 0.139617
-0.038783 0.041303 0.125206
-0.045083 -0.009016 0.110205
-0.076109 -0.029096 0.114300
-0.077290 0.028191 0.223127
-0.089692 -0.060516 0.174896
-0.058509 -0.057996 0.248012
-0.047799 -0.031302 0.288605
0.045083 -0.009016 0.110205
0.038783 0.041303 0.125206
0.047798 -0.031302 0.288605
0.077289 0.028191 0.223127
0.058508 -0.057996 0.248012
0.089692 -0.060516 0.174896
0.076108 -0.029096 0.114300
0.065595 0.055910 0.139617
-0.187613 -0.130404 0.106701
-0.274707 -0.260808 0.155209
-0.269628 -0.262816 0.164619
-0.182495 -0.132412 0.116112
-0.261517 -0.267226 0.159225
-0.174424 -0.136822 0.110718
-0.266596 -0.265100 0.149815
-0.160722 0.015592 0.137019
-0.065203 -0.004607 0.016498
-0.085597 -0.004607 0.003189
-0.181116 0.015592 0.123710
-0.085597 -0.029018 0.003189
-0.181116 -0.008702 0.123710
-0.160722 -0.008702 0.137019
-0.186314 0.007284 0.145523
-0.196315 -0.141507 0.118001
-0.173596 -0.146114 0.120994
-0.163714 0.002716 0.148516
-0.169816 -0.142097 0.098394
-0.159894 0.006693 0.125916
-0.192495 -0.137491 0.095401
-0.182495 0.011301 0.122923
-0.065203 -0.029018 0.016498
-0.179503 -0.134695 0.101307
0.261516 -0.267226 0.159225
0.266595 -0.265100 0.149815
0.274707 -0.260808 0.155209
0.269627 -0.262816 0.164619
0.174423 -0.136822 0.110718
0.182494 -0.132412 0.116112
0.187613 -0.130404 0.106701
0.181116 0.015592 0.123710
0.160722 0.015592 0.137019
0.160722 -0.008702 0.137019
0.181116 -0.008702 0.123710
0.085597 -0.004607 0.003189
0.085597 -0.029018 0.003189
0.065202 -0.004607 0.016498
0.169816 -0.142097 0.098394
0.192495 -0.137491 0.095401
0.196314 -0.141507 0.118001
0.173596 -0.146114 0.120994
0.159894 0.006693 0.125916
0.163713 0.002716 0.148516
0.186314 0.007284 0.145523
0.182494 0.011301 0.122923
0.065202 -0.029018 0.016498
0.179503 -0.134695 0.101307
-0.258918 0.025198 -0.156508
-0.302701 -0.100323 -0.174817
-0.280022 -0.105008 -0.171824
-0.236318 0.020592 -0.153516
-0.276203 -0.100992 -0.194425
-0.232498 0.024608 -0.176195
-0.298921 -0.096386 -0.197417
-0.240216 0.041814 -0.153319
-0.100913 0.013387 -0.100086
-0.093511 0.013387 -0.123396
-0.232814 0.041814 -0.176588
-0.093511 -0.010985 -0.123396
-0.232814 0.017403 -0.176588
-0.240216 0.017403 -0.153319
-0.298921 -0.095402 -0.184424
-0.325026 -0.273407 -0.168793
-0.317899 -0.274628 -0.160721
-0.291795 -0.096622 -0.176195
-0.309907 -0.275022 -0.167691
-0.283802 -0.097015 -0.183321
-0.316994 -0.273801 -0.175801
-0.290929 -0.095795 -0.191393
-0.100913 -0.010985 -0.100086
-0.255099 0.029215 -0.179226
0.276203 -0.100992 -0.194425
0.298920 -0.096386 -0.197417
0.302700 -0.100323 -0.174817
0.280022 -0.105008 -0.171824
0.232498 0.024608 -0.176195
0.236317 0.020592 -0.153516
0.258917 0.025198 -0.156508
0.232813 0.041814 -0.176588
0.240215 0.041814 -0.153319
0.240215 0.017403 -0.153319
0.232813 0.017403 -0.176588
0.093511 0.013387 -0.123396
0.093511 -0.010985 -0.123396
0.100913 0.013387 -0.100086
0.309906 -0.275022 -0.167691
0.316993 -0.273801 -0.175801
0.325026 -0.273407 -0.168793
0.317898 -0.274628 -0.160721
0.283802 -0.097015 -0.183321
0.291794 -0.096622 -0.176195
0.298920 -0.095402 -0.184424
0.290928 -0.095795 -0.191393
0.100913 -0.010985 -0.100086
0.255098 0.029215 -0.179226
-0.247224 0.031813 -0.331719
-0.254902 -0.123789 -0.376801
-0.232224 -0.128396 -0.373809
-0.224506 0.027207 -0.328726
-0.228404 -0.124419 -0.396527
-0.220726 0.031184 -0.351405
-0.251122 -0.119812 -0.399520
-0.245807 0.044689 -0.327624
-0.095323 -0.008584 -0.164698
-0.079691 -0.008584 -0.183400
-0.230215 0.044689 -0.346405
-0.079691 -0.032994 -0.183400
-0.230215 0.020316 -0.346405
-0.245807 0.020316 -0.327624
-0.248996 -0.112489 -0.379400
-0.243011 -0.243917 -0.495039
-0.235925 -0.250807 -0.490432
-0.241909 -0.119418 -0.374912
-0.227892 -0.245807 -0.495433
-0.233916 -0.114418 -0.379912
-0.235018 -0.238995 -0.500000
-0.241004 -0.107607 -0.384400
-0.095323 -0.032994 -0.164698
-0.243405 0.035790 -0.354398
0.228404 -0.124419 -0.396527
0.251122 -0.119812 -0.399520
0.254902 -0.123789 -0.376801
0.232223 -0.128396 -0.373809
0.220726 0.031184 -0.351405
0.224506 0.027207 -0.328726
0.247224 0.031813 -0.331719
0.230215 0.044689 -0.346405
0.245807 0.044689 -0.327624
0.245807 0.020316 -0.327624
0.230215 0.020316 -0.346405
0.079691 -0.008584 -0.183400
0.079691 -0.032994 -0.183400
0.095323 -0.008584 -0.164698
0.227892 -0.245807 -0.495433
0.235018 -0.238995 -0.500000
0.243011 -0.243917 -0.495039
0.235924 -0.250807 -0.490432
0.233916 -0.114418 -0.379912
0.241909 -0.119418 -0.374912
0.248995 -0.112489 -0.379400
0.241003 -0.107607 -0.384400
0.095323 -0.032994 -0.164698
0.243405 0.035790 -0.354398
-0.029491 -0.016497 -0.176509
-0.013702 -0.030908 -0.272502
0.013702 -0.030908 -0.272502
0.029490 -0.016497 -0.176509
-0.051186 -0.025121 -0.158792
0.051185 -0.025121 -0.158792
-0.014687 0.028191 0.100323
-0.010394 0.028191 0.143790
0.010394 0.028191 0.143790
0.014686 0.028191 0.100323
0.034018 0.063115 0.123396
0.014686 0.004016 0.074100
0.034018 -0.016104 0.037483
0.063509 0.094220 0.049610
0.063509 0.015002 -0.036184
0.060792 0.100598 -0.039216
-0.057997 -0.000590 -0.095322
-0.057997 0.062918 -0.119892
-0.051186 0.038389 -0.183400
-0.013702 -0.013898 -0.279117
0.013702 -0.013898 -0.279117
0.057996 0.062918 -0.119892
0.051185 0.038389 -0.183400
0.057996 -0.000590 -0.095322
-0.063509 0.015002 -0.036184
-0.034018 -0.016104 0.037483
-0.014687 0.004016 0.074100
0.010394 0.004016 0.117607
-0.060792 0.100598 -0.039216
0.029490 0.020119 -0.190605
-0.029491 0.020119 -0.190605
-0.010394 0.004016 0.117607
-0.034018 0.063115 0.123396
-0.063509 0.094220 0.049610
-0.123317 0.272895 0.449602
-0.134814 0.275022 0.494016
-0.128199 0.275022 0.496928
-0.103001 0.272895 0.458619
-0.092488 0.254311 0.384716
-0.075715 0.254311 0.392196
-0.028901 0.206118 0.252421
-0.020592 0.206118 0.256122
-0.025121 0.200725 0.240098
-0.014017 0.200725 0.245019
-0.023506 0.193205 0.236594
-0.012403 0.193205 0.241397
-0.023506 0.182810 0.236594
-0.012403 0.182810 0.241397
-0.017285 -0.017796 0.252500
-0.012403 -0.017796 0.241397
-0.017285 0.182810 0.252500
-0.028388 -0.017796 0.247618
-0.028388 0.182810 0.247618
0.127490 0.248603 0.459130
0.136113 0.267108 0.497125
0.129616 0.267108 0.500000
0.107213 0.248603 0.468107
0.095992 0.234192 0.392629
0.079218 0.234192 0.400032
0.030593 0.196117 0.256319
0.022285 0.196117 0.260020
0.029096 0.190212 0.249193
0.017993 0.190212 0.253997
0.028388 0.186905 0.247618
0.017285 0.186905 0.252500
0.028388 0.182810 0.247618
0.017285 0.182810 0.252500
0.134813 0.275022 0.494016
0.128198 0.275022 0.496928
0.012403 0.182810 0.241397
0.023506 0.182810 0.236594
0.023506 -0.017796 0.236594
0.012403 -0.017796 0.241397
0.028388 -0.017796 0.247618
0.012403 0.193205 0.241397
0.014016 0.200725 0.245019
0.020592 0.206118 0.256122
0.075714 0.254311 0.392196
0.103001 0.272895 0.458619
-0.023506 -0.017796 0.236594
-0.028388 0.186905 0.247618
-0.029097 0.190212 0.249193
-0.030593 0.196117 0.256319
-0.095992 0.234192 0.392629
-0.127491 0.248603 0.459130
-0.136113 0.267108 0.497125
-0.129616 0.267108 0.500000
-0.107213 0.248603 0.468107
-0.079219 0.234192 0.400032
-0.022286 0.196117 0.260020
-0.017994 0.190212 0.253997
-0.017285 0.186905 0.252500
0.123316 0.272895 0.449602
0.092488 0.254311 0.384716
0.028899 0.206118 0.252421
0.025119 0.200725 0.240098
0.023506 0.193205 0.236594
0.017285 -0.017796 0.252500
3 0 1 2
3 4 0 3
3 2 6 5
3 7 4 5
3 1 7 6
3 0 4 7
3 8 9 10
3 12 13 11
3 13 14 8
3 13 12 15
3 14 15 9
3 15 12 10
3 16 17 18
3 20 16 19
3 18 22 21
3 23 20 21
3 17 23 22
3 16 20 23
3 24 25 26
3 28 29 30
3 32 33 34
3 30 29 36
3 28 27 32
3 35 36 29
3 33 38 25
3 27 26 39
3 31 30 37
3 28 31 24
3 26 25 38
3 24 31 34
3 34 37 36
3 32 39 38
3 40 41 42
3 44 40 43
3 45 46 47
3 48 42 41
3 47 50 51
3 52 53 50
3 45 43 54
3 55 49 41
3 43 42 48
3 51 55 40
3 53 51 50
3 46 52 50
3 53 52 46
3 53 54 55
3 54 48 49
3 56 57 58
3 59 58 60
3 58 57 62
3 63 64 65
3 67 68 66
3 68 69 63
3 70 71 72
3 73 72 74
3 72 71 76
3 75 74 76
3 71 70 77
3 70 73 75
3 68 67 78
3 69 78 64
3 78 67 65
3 61 60 62
3 57 56 79
3 56 59 61
3 80 81 82
3 84 80 83
3 85 83 82
3 87 88 89
3 91 87 90
3 87 91 93
3 94 95 96
3 98 94 97
3 99 97 96
3 101 98 99
3 95 101 100
3 101 95 94
3 93 91 92
3 88 93 102
3 89 102 92
3 103 84 85
3 81 103 86
3 103 81 80
3 104 105 106
3 107 106 108
3 106 105 110
3 111 112 113
3 115 116 114
3 116 117 111
3 118 119 120
3 121 120 122
3 120 119 124
3 123 122 124
3 119 118 125
3 118 121 123
3 116 115 126
3 117 126 112
3 126 115 113
3 109 108 110
3 105 104 127
3 104 107 109
3 128 129 130
3 132 128 131
3 133 131 130
3 135 136 137
3 139 135 138
3 135 139 141
3 142 143 144
3 146 142 145
3 147 145 144
3 149 146 147
3 143 149 148
3 149 143 142
3 141 139 140
3 136 141 150
3 137 150 140
3 151 132 133
3 129 151 134
3 151 129 128
3 152 153 154
3 155 154 156
3 154 153 158
3 159 160 161
3 163 164 162
3 164 165 159
3 166 167 168
3 169 168 170
3 168 167 172
3 171 170 172
3 167 166 173
3 166 169 171
3 164 163 174
3 165 174 160
3 174 163 161
3 157 156 158
3 153 152 175
3 152 155 157
3 176 177 178
3 180 176 179
3 181 179 178
3 183 184 185
3 187 183 186
3 183 187 189
3 190 191 192
3 194 190 193
3 195 193 192
3 197 194 195
3 191 197 196
3 197 191 190
3 189 187 188
3 184 189 198
3 185 198 188
3 199 180 181
3 177 199 182
3 199 177 176
3 200 201 202
3 204 200 203
3 206 207 208
3 210 209 211
3 213 210 212
3 215 213 214
3 204 216 217
3 202 201 219
3 217 221 222
3 223 214 224
3 214 212 225
3 212 211 226
3 209 208 227
3 228 217 216
3 205 203 229
3 203 202 220
3 230 219 201
3 218 230 200
3 214 223 221
3 226 231 207
3 232 206 209
3 233 232 210
3 228 233 213
3 223 205 222
3 227 208 207
3 204 205 223
3 224 233 228
3 224 225 232
3 225 226 206
3 211 227 231
3 215 221 217
3 222 229 230
3 229 220 219
3 234 235 236
3 238 234 237
3 240 238 239
3 242 240 241
3 244 242 243
3 246 244 245
3 248 249 247
3 251 248 250
3 253 254 255
3 257 253 256
3 259 257 258
3 261 259 260
3 263 261 262
3 265 263 264
3 267 268 255
3 269 270 271
3 270 265 273
3 266 264 274
3 264 262 275
3 262 260 276
3 260 258 277
3 258 256 278
3 256 255 268
3 279 249 248
3 252 280 244
3 280 281 242
3 281 282 240
3 282 283 238
3 283 284 234
3 284 285 235
3 237 236 286
3 239 237 287
3 241 239 288
3 243 241 289
3 245 243 290
3 247 245 291
3 279 251 252
3 249 279 246
3 292 267 254
3 293 292 253
3 294 293 257
3 295 294 259
3 296 295 261
3 270 296 263
3 273 297 272
3 265 266 297
3 266 269 272
3 269 274 296
3 274 275 295
3 275 276 294
3 276 277 293
3 277 278 292
3 278 268 267
3 285 286 236
3 250 291 280
3 291 290 281
3 290 289 282
3 289 288 283
3 288 287 284
3 287 286 285
3 0 2 3
3 4 3 5
3 2 5 3
3 7 5 6
3 1 6 2
3 0 7 1
3 8 10 11
3 12 11 10
3 13 8 11
3 13 15 14
3 14 9 8
3 15 10 9
3 16 18 19
3 20 19 21
3 18 21 19
3 23 21 22
3 17 22 18
3 16 23 17
3 24 26 27
3 28 30 31
3 32 34 35
3 30 36 37
3 28 32 35
3 35 29 28
3 33 25 24
3 27 39 32
3 31 37 34
3 28 24 27
3 26 38 39
3 24 34 33
3 34 36 35
3 32 38 33
3 40 42 43
3 44 43 45
3 45 47 44
3 48 41 49
3 47 51 44
3 45 54 53
3 55 41 40
3 43 48 54
3 51 40 44
3 46 50 47
3 53 46 45
3 53 55 51
3 54 49 55
3 56 58 59
3 59 60 61
3 58 62 60
3 63 65 66
3 67 66 65
3 68 63 66
3 70 72 73
3 73 74 75
3 72 76 74
3 75 76 77
3 71 77 76
3 70 75 77
3 68 78 69
3 69 64 63
3 78 65 64
3 61 62 79
3 57 79 62
3 56 61 79
3 80 82 83
3 84 83 85
3 85 82 86
3 87 89 90
3 91 90 92
3 87 93 88
3 94 96 97
3 98 97 99
3 99 96 100
3 101 99 100
3 95 100 96
3 101 94 98
3 93 92 102
3 88 102 89
3 89 92 90
3 103 85 86
3 81 86 82
3 103 80 84
3 104 106 107
3 107 108 109
3 106 110 108
3 111 113 114
3 115 114 113
3 116 111 114
3 118 120 121
3 121 122 123
3 120 124 122
3 123 124 125
3 119 125 124
3 118 123 125
3 116 126 117
3 117 112 111
3 126 113 112
3 109 110 127
3 105 127 110
3 104 109 127
3 128 130 131
3 132 131 133
3 133 130 134
3 135 137 138
3 139 138 140
3 135 141 136
3 142 144 145
3 146 145 147
3 147 144 148
3 149 147 148
3 143 148 144
3 149 142 146
3 141 140 150
3 136 150 137
3 137 140 138
3 151 133 134
3 129 134 130
3 151 128 132
3 152 154 155
3 155 156 157
3 154 158 156
3 159 161 162
3 163 162 161
3 164 159 162
3 166 168 169
3 169 170 171
3 168 172 170
3 171 172 173
3 167 173 172
3 166 171 173
3 164 174 165
3 165 160 159
3 174 161 160
3 157 158 175
3 153 175 158
3 152 157 175
3 176 178 179
3 180 179 181
3 181 178 182
3 183 185 186
3 187 186 188
3 183 189 184
3 190 192 193
3 194 193 195
3 195 192 196
3 197 195 196
3 191 196 192
3 197 190 194
3 189 188 198
3 184 198 185
3 185 188 186
3 199 181 182
3 177 182 178
3 199 176 180
3 200 202 203
3 204 203 205
3 206 208 209
3 210 211 212
3 213 212 214
3 204 217 218
3 202 219 220
3 217 222 218
3 223 224 216
3 214 225 224
3 212 226 225
3 209 227 211
3 228 216 224
3 205 229 222
3 203 220 229
3 230 201 200
3 218 200 204
3 214 221 215
3 226 207 206
3 232 209 210
3 233 210 213
3 228 213 215
3 223 222 221
3 227 207 231
3 204 223 216
3 224 232 233
3 225 206 232
3 211 231 226
3 215 217 228
3 222 230 218
3 229 219 230
3 234 236 237
3 238 237 239
3 240 239 241
3 242 241 243
3 244 243 245
3 246 245 247
3 248 247 250
3 251 250 252
3 253 255 256
3 257 256 258
3 259 258 260
3 261 260 262
3 263 262 264
3 265 264 266
3 267 255 254
3 269 271 272
3 270 273 271
3 266 274 269
3 264 275 274
3 262 276 275
3 260 277 276
3 258 278 277
3 256 268 278
3 279 248 251
3 252 244 246
3 280 242 244
3 281 240 242
3 282 238 240
3 283 234 238
3 284 235 234
3 237 286 287
3 239 287 288
3 241 288 289
3 243 289 290
3 245 290 291
3 247 291 250
3 279 252 246
3 249 246 247
3 292 254 253
3 293 253 257
3 294 257 259
3 295 259 261
3 296 261 263
3 270 263 265
3 273 272 271
3 265 297 273
3 266 272 297
3 269 296 270
3 274 295 296
3 275 294 295
3 276 293 294
3 277 292 293
3 278 267 292
3 285 236 235
3 250 280 252
3 291 281 280
3 290 282 281
3 289 283 282
3 288 284 283
3 287 285 284
