ply
format ascii 1.0
comment  
element vertex 298
property float x
property float y
property float z
element face 492
property list uchar int vertex_indices
end_header
-0.482952 -0.516971 -0.060398
-0.482952 -0.516971 0.039608
-0.482952 -0.458383 0.039608
-0.482952 -0.458383 -0.060398
-0.216945 -0.516971 -0.060398
-0.216945 -0.458383 -0.060398
-0.216945 -0.458383 0.039608
-0.216945 -0.516971 0.039608
-0.515316 -0.442792 -0.131979
-0.184581 -0.442792 -0.131979
-0.184581 -0.442792 -0.231987
-0.515316 -0.442792 -0.231987
-0.184581 -0.501379 -0.231987
-0.515316 -0.501379 -0.231987
-0.515316 -0.501379 -0.131979
-0.184581 -0.501379 -0.131979
-0.493345 -0.555950 -0.364596
-0.493345 -0.555950 -0.264587
-0.493345 -0.497362 -0.264587
-0.493345 -0.497362 -0.364596
-0.206552 -0.555950 -0.364596
-0.206552 -0.497362 -0.364596
-0.206552 -0.497362 -0.264587
-0.206552 -0.555950 -0.264587
-0.224347 -0.619735 -0.546657
-0.274983 -0.547760 -0.486181
-0.424916 -0.547760 -0.486181
-0.475550 -0.619735 -0.546657
-0.498385 -0.723758 -0.750846
-0.373179 -0.765179 -0.975038
-0.326718 -0.765179 -0.975038
-0.201512 -0.723758 -0.750846
-0.475550 -0.379952 -0.621623
-0.224347 -0.379952 -0.621623
-0.202928 -0.447594 -0.853611
-0.496968 -0.447594 -0.853611
-0.373179 -0.721002 -0.988818
-0.326718 -0.721002 -0.988818
-0.274983 -0.404520 -0.530987
-0.424916 -0.404520 -0.530987
-0.481141 -0.338137 0.279234
-0.427514 -0.367352 0.250412
-0.440114 -0.467990 0.220410
-0.502166 -0.508150 0.228600
-0.504528 -0.393575 0.446254
-0.529333 -0.570989 0.349791
-0.466966 -0.565949 0.496023
-0.445547 -0.512560 0.577210
-0.259783 -0.467990 0.220410
-0.272383 -0.367352 0.250412
-0.254352 -0.512560 0.577210
-0.195371 -0.393575 0.446254
-0.232933 -0.565949 0.496023
-0.170564 -0.570989 0.349791
-0.197733 -0.508150 0.228600
-0.218758 -0.338137 0.279234
-0.725175 -0.710764 0.213402
-0.899362 -0.971573 0.310419
-0.889204 -0.975589 0.329238
-0.714939 -0.714781 0.232223
-0.872982 -0.984408 0.318450
-0.698796 -0.723600 0.221436
-0.883140 -0.980156 0.299629
-0.671392 -0.418773 0.274038
-0.480354 -0.459171 0.032996
-0.521143 -0.459171 0.006379
-0.712181 -0.418773 0.247421
-0.521143 -0.507994 0.006379
-0.712181 -0.467360 0.247421
-0.671392 -0.467360 0.274038
-0.722577 -0.435390 0.291046
-0.742579 -0.732971 0.236002
-0.697141 -0.742185 0.241987
-0.677377 -0.444524 0.297031
-0.689581 -0.734152 0.196787
-0.669737 -0.436571 0.251831
-0.734939 -0.724939 0.190802
-0.714939 -0.427356 0.245846
-0.480354 -0.507994 0.032996
-0.708954 -0.719347 0.202615
0.173084 -0.984408 0.318450
0.183242 -0.980156 0.299629
0.199465 -0.971573 0.310419
0.189305 -0.975589 0.329238
-0.001103 -0.723600 0.221436
0.015040 -0.714781 0.232223
0.025278 -0.710764 0.213402
0.012284 -0.418773 0.247421
-0.028505 -0.418773 0.274038
-0.028505 -0.467360 0.274038
0.012284 -0.467360 0.247421
-0.178754 -0.459171 0.006379
-0.178754 -0.507994 0.006379
-0.219545 -0.459171 0.032996
-0.010316 -0.734152 0.196787
0.035042 -0.724939 0.190802
0.042680 -0.732971 0.236002
-0.002756 -0.742185 0.241987
-0.030160 -0.436571 0.251831
-0.022522 -0.444524 0.297031
0.022680 -0.435390 0.291046
0.015040 -0.427356 0.245846
-0.219545 -0.507994 0.032996
0.009057 -0.719347 0.202615
-0.867785 -0.399560 -0.313017
-0.955351 -0.650602 -0.349634
-0.909993 -0.659973 -0.343648
-0.822585 -0.408773 -0.307032
-0.902355 -0.651941 -0.388851
-0.814945 -0.400741 -0.352390
-0.947791 -0.642728 -0.394834
-0.830381 -0.366328 -0.306638
-0.551775 -0.423183 -0.200173
-0.536971 -0.423183 -0.246792
-0.815577 -0.366328 -0.353177
-0.536971 -0.471926 -0.246792
-0.815577 -0.415152 -0.353177
-0.830381 -0.415152 -0.306638
-0.947791 -0.640760 -0.368849
-1.000000 -0.996771 -0.337585
-0.985747 -0.999213 -0.321442
-0.933538 -0.643200 -0.352390
-0.969761 -1.000000 -0.335381
-0.917553 -0.643987 -0.366642
-0.983936 -0.997559 -0.351602
-0.931806 -0.641547 -0.382785
-0.551775 -0.471926 -0.200173
-0.860147 -0.391526 -0.358453
0.202457 -0.651941 -0.388851
0.247892 -0.642728 -0.394834
0.255452 -0.650602 -0.349634
0.210095 -0.659973 -0.343648
0.115048 -0.400741 -0.352390
0.122686 -0.408773 -0.307032
0.167886 -0.399560 -0.313017
0.115678 -0.366328 -0.353177
0.130482 -0.366328 -0.306638
0.130482 -0.415152 -0.306638
0.115678 -0.415152 -0.353177
-0.162926 -0.423183 -0.246792
-0.162926 -0.471926 -0.246792
-0.148122 -0.423183 -0.200173
0.269863 -1.000000 -0.335381
0.284038 -0.997559 -0.351602
0.300103 -0.996771 -0.337585
0.285848 -0.999213 -0.321442
0.217655 -0.643987 -0.366642
0.233640 -0.643200 -0.352390
0.247892 -0.640760 -0.368849
0.231907 -0.641547 -0.382785
-0.148122 -0.471926 -0.200173
0.160248 -0.391526 -0.358453
-0.844397 -0.386331 -0.663438
-0.859753 -0.697535 -0.753602
-0.814396 -0.706749 -0.747619
-0.798960 -0.395543 -0.657453
-0.806756 -0.698796 -0.793055
-0.791400 -0.387590 -0.702811
-0.852193 -0.689581 -0.799040
-0.841562 -0.360579 -0.655248
-0.540594 -0.467124 -0.329396
-0.509331 -0.467124 -0.366800
-0.810379 -0.360579 -0.692811
-0.509331 -0.515945 -0.366800
-0.810379 -0.409324 -0.692811
-0.841562 -0.409324 -0.655248
-0.847941 -0.674935 -0.758800
-0.835971 -0.937790 -0.990078
-0.821798 -0.951571 -0.980865
-0.833766 -0.688794 -0.749823
-0.805733 -0.941570 -0.990865
-0.817781 -0.678794 -0.759823
-0.819985 -0.927947 -1.000000
-0.831956 -0.665171 -0.768800
-0.540594 -0.515945 -0.329396
-0.836758 -0.378377 -0.708796
0.106859 -0.698796 -0.793055
0.152295 -0.689581 -0.799040
0.159855 -0.697535 -0.753602
0.114497 -0.706749 -0.747619
0.091503 -0.387590 -0.702811
0.099063 -0.395543 -0.657453
0.144499 -0.386331 -0.663438
0.110482 -0.360579 -0.692811
0.141665 -0.360579 -0.655248
0.141665 -0.409324 -0.655248
0.110482 -0.409324 -0.692811
-0.190566 -0.467124 -0.366800
-0.190566 -0.515945 -0.366800
-0.159303 -0.467124 -0.329396
0.105836 -0.941570 -0.990865
0.120088 -0.927947 -1.000000
0.136073 -0.937790 -0.990078
0.121899 -0.951571 -0.980865
0.117884 -0.678794 -0.759823
0.133870 -0.688794 -0.749823
0.148042 -0.674935 -0.758800
0.132057 -0.665171 -0.768800
-0.159303 -0.515945 -0.329396
0.136861 -0.378377 -0.708796
-0.408931 -0.482952 -0.353019
-0.377352 -0.511773 -0.545004
-0.322545 -0.511773 -0.545004
-0.290968 -0.482952 -0.353019
-0.452320 -0.500198 -0.317583
-0.247579 -0.500198 -0.317583
-0.379322 -0.393575 0.200646
-0.370737 -0.393575 0.287581
-0.329160 -0.393575 0.287581
-0.320577 -0.393575 0.200646
-0.281912 -0.323726 0.246792
-0.320577 -0.441924 0.148200
-0.281912 -0.482164 0.074966
-0.222931 -0.261516 0.099221
-0.222931 -0.419954 -0.072369
-0.228364 -0.248760 -0.078432
-0.465943 -0.451137 -0.190644
-0.465943 -0.324120 -0.239783
-0.452320 -0.373179 -0.366800
-0.377352 -0.477754 -0.558234
-0.322545 -0.477754 -0.558234
-0.233956 -0.324120 -0.239783
-0.247579 -0.373179 -0.366800
-0.233956 -0.451137 -0.190644
-0.476966 -0.419954 -0.072369
-0.417985 -0.482164 0.074966
-0.379322 -0.441924 0.148200
-0.329160 -0.441924 0.235215
-0.471533 -0.248760 -0.078432
-0.290968 -0.409718 -0.381211
-0.408931 -0.409718 -0.381211
-0.370737 -0.441924 0.235215
-0.417985 -0.323726 0.246792
-0.476966 -0.261516 0.099221
-0.596583 0.095834 0.899204
-0.619577 0.100086 0.988031
-0.606347 0.100086 0.993857
-0.555950 0.095834 0.917238
-0.534924 0.058665 0.769431
-0.501379 0.058665 0.784392
-0.407750 -0.037720 0.504842
-0.391133 -0.037720 0.512244
-0.400190 -0.048507 0.480196
-0.377983 -0.048507 0.490038
-0.396960 -0.063547 0.473187
-0.374754 -0.063547 0.482794
-0.396960 -0.084337 0.473187
-0.374754 -0.084337 0.482794
-0.384518 -0.485550 0.505000
-0.374754 -0.485550 0.482794
-0.384518 -0.084337 0.505000
-0.406724 -0.485550 0.495236
-0.406724 -0.084337 0.495236
-0.094968 0.047248 0.918261
-0.077722 0.084259 0.994250
-0.090716 0.084259 1.000000
-0.135522 0.047248 0.936215
-0.157964 0.018427 0.785259
-0.191512 0.018427 0.800063
-0.288762 -0.057722 0.512638
-0.305379 -0.057722 0.520040
-0.291756 -0.069533 0.498385
-0.313962 -0.069533 0.507994
-0.293173 -0.076147 0.495236
-0.315379 -0.076147 0.505000
-0.293173 -0.084337 0.495236
-0.315379 -0.084337 0.505000
-0.080322 0.100086 0.988031
-0.093552 0.100086 0.993857
-0.325143 -0.084337 0.482794
-0.302937 -0.084337 0.473187
-0.302937 -0.485550 0.473187
-0.325143 -0.485550 0.482794
-0.293173 -0.485550 0.495236
-0.325143 -0.063547 0.482794
-0.321916 -0.048507 0.490038
-0.308764 -0.037720 0.512244
-0.198520 0.058665 0.784392
-0.143947 0.095834 0.917238
-0.396960 -0.485550 0.473187
-0.406724 -0.076147 0.495236
-0.408143 -0.069533 0.498385
-0.411135 -0.057722 0.512638
-0.541933 0.018427 0.785259
-0.604931 0.047248 0.918261
-0.622175 0.084259 0.994250
-0.609181 0.084259 1.000000
-0.564375 0.047248 0.936215
-0.508387 0.018427 0.800063
-0.394520 -0.057722 0.520040
-0.385937 -0.069533 0.507994
-0.384518 -0.076147 0.505000
-0.103316 0.095834 0.899204
-0.164973 0.058665 0.769431
-0.292150 -0.037720 0.504842
-0.299710 -0.048507 0.480196
-0.302937 -0.063547 0.473187
-0.315379 -0.485550 0.505000
3 0 1 2
3 4 0 3
3 2 6 5
3 7 4 5
3 1 7 6
3 0 4 7
3 8 9 10
3 12 13 11
3 13 14 8
3 13 12 15
3 14 15 9
3 15 12 10
3 16 17 18
3 20 16 19
3 18 22 21
3 23 20 21
3 17 23 22
3 16 20 23
3 24 25 26
3 28 29 30
3 32 33 34
3 30 29 36
3 28 27 32
3 35 36 29
3 33 38 25
3 27 26 39
3 31 30 37
3 28 31 24
3 26 25 38
3 24 31 34
3 34 37 36
3 32 39 38
3 40 41 42
3 44 40 43
3 45 46 47
3 48 42 41
3 47 50 51
3 52 53 50
3 45 43 54
3 55 49 41
3 43 42 48
3 51 55 40
3 53 51 50
3 46 52 50
3 53 52 46
3 53 54 55
3 54 48 49
3 56 57 58
3 59 58 60
3 58 57 62
3 63 64 65
3 67 68 66
3 68 69 63
3 70 71 72
3 73 72 74
3 72 71 76
3 75 74 76
3 71 70 77
3 70 73 75
3 68 67 78
3 69 78 64
3 78 67 65
3 61 60 62
3 57 56 79
3 56 59 61
3 80 81 82
3 84 80 83
3 85 83 82
3 87 88 89
3 91 87 90
3 87 91 93
3 94 95 96
3 98 94 97
3 99 97 96
3 101 98 99
3 95 101 100
3 101 95 94
3 93 91 92
3 88 93 102
3 89 102 92
3 103 84 85
3 81 103 86
3 103 81 80
3 104 105 106
3 107 106 108
3 106 105 110
3 111 112 113
3 115 116 114
3 116 117 111
3 118 119 120
3 121 120 122
3 120 119 124
3 123 122 124
3 119 118 125
3 118 121 123
3 116 115 126
3 117 126 112
3 126 115 113
3 109 108 110
3 105 104 127
3 104 107 109
3 128 129 130
3 132 128 131
3 133 131 130
3 135 136 137
3 139 135 138
3 135 139 141
3 142 143 144
3 146 142 145
3 147 145 144
3 149 146 147
3 143 149 148
3 149 143 142
3 141 139 140
3 136 141 150
3 137 150 140
3 151 132 133
3 129 151 134
3 151 129 128
3 152 153 154
3 155 154 156
3 154 153 158
3 159 160 161
3 163 164 162
3 164 165 159
3 166 167 168
3 169 168 170
3 168 167 172
3 171 170 172
3 167 166 173
3 166 169 171
3 164 163 174
3 165 174 160
3 174 163 161
3 157 156 158
3 153 152 175
3 152 155 157
3 176 177 178
3 180 176 179
3 181 179 178
3 183 184 185
3 187 183 186
3 183 187 189
3 190 191 192
3 194 190 193
3 195 193 192
3 197 194 195
3 191 197 196
3 197 191 190
3 189 187 188
3 184 189 198
3 185 198 188
3 199 180 181
3 177 199 182
3 199 177 176
3 200 201 202
3 204 200 203
3 206 207 208
3 210 209 211
3 213 210 212
3 215 213 214
3 204 216 217
3 202 201 219
3 217 221 222
3 223 214 224
3 214 212 225
3 212 211 226
3 209 208 227
3 228 217 216
3 205 203 229
3 203 202 220
3 230 219 201
3 218 230 200
3 214 223 221
3 226 231 207
3 232 206 209
3 233 232 210
3 228 233 213
3 223 205 222
3 227 208 207
3 204 205 223
3 224 233 228
3 224 225 232
3 225 226 206
3 211 227 231
3 215 221 217
3 222 229 230
3 229 220 219
3 234 235 236
3 238 234 237
3 240 238 239
3 242 240 241
3 244 242 243
3 246 244 245
3 248 249 247
3 251 248 250
3 253 254 255
3 257 253 256
3 259 257 258
3 261 259 260
3 263 261 262
3 265 263 264
3 267 268 255
3 269 270 271
3 270 265 273
3 266 264 274
3 264 262 275
3 262 260 276
3 260 258 277
3 258 256 278
3 256 255 268
3 279 249 248
3 252 280 244
3 280 281 242
3 281 282 240
3 282 283 238
3 283 284 234
3 284 285 235
3 237 236 286
3 239 237 287
3 241 239 288
3 243 241 289
3 245 243 290
3 247 245 291
3 279 251 252
3 249 279 246
3 292 267 254
3 293 292 253
3 294 293 257
3 295 294 259
3 296 295 261
3 270 296 263
3 273 297 272
3 265 266 297
3 266 269 272
3 269 274 296
3 274 275 295
3 275 276 294
3 276 277 293
3 277 278 292
3 278 268 267
3 285 286 236
3 250 291 280
3 291 290 281
3 290 289 282
3 289 288 283
3 288 287 284
3 287 286 285
3 0 2 3
3 4 3 5
3 2 5 3
3 7 5 6
3 1 6 2
3 0 7 1
3 8 10 11
3 12 11 10
3 13 8 11
3 13 15 14
3 14 9 8
3 15 10 9
3 16 18 19
3 20 19 21
3 18 21 19
3 23 21 22
3 17 22 18
3 16 23 17
3 24 26 27
3 28 30 31
3 32 34 35
3 30 36 37
3 28 32 35
3 35 29 28
3 33 25 24
3 27 39 32
3 31 37 34
3 28 24 27
3 26 38 39
3 24 34 33
3 34 36 35
3 32 38 33
3 40 42 43
3 44 43 45
3 45 47 44
3 48 41 49
3 47 51 44
3 45 54 53
3 55 41 40
3 43 48 54
3 51 40 44
3 46 50 47
3 53 46 45
3 53 55 51
3 54 49 55
3 56 58 59
3 59 60 61
3 58 62 60
3 63 65 66
3 67 66 65
3 68 63 66
3 70 72 73
3 73 74 75
3 72 76 74
3 75 76 77
3 71 77 76
3 70 75 77
3 68 78 69
3 69 64 63
3 78 65 64
3 61 62 79
3 57 79 62
3 56 61 79
3 80 82 83
3 84 83 85
3 85 82 86
3 87 89 90
3 91 90 92
3 87 93 88
3 94 96 97
3 98 97 99
3 99 96 100
3 101 99 100
3 95 100 96
3 101 94 98
3 93 92 102
3 88 102 89
3 89 92 90
3 103 85 86
3 81 86 82
3 103 80 84
3 104 106 107
3 107 108 109
3 106 110 108
3 111 113 114
3 115 114 113
3 116 111 114
3 118 120 121
3 121 122 123
3 120 124 122
3 123 124 125
3 119 125 124
3 118 123 125
3 116 126 117
3 117 112 111
3 126 113 112
3 109 110 127
3 105 127 110
3 104 109 127
3 128 130 131
3 132 131 133
3 133 130 134
3 135 137 138
3 139 138 140
3 135 141 136
3 142 144 145
3 146 145 147
3 147 144 148
3 149 147 148
3 143 148 144
3 149 142 146
3 141 140 150
3 136 150 137
3 137 140 138
3 151 133 134
3 129 134 130
3 151 128 132
3 152 154 155
3 155 156 157
3 154 158 156
3 159 161 162
3 163 162 161
3 164 159 162
3 166 168 169
3 169 170 171
3 168 172 170
3 171 172 173
3 167 173 172
3 166 171 173
3 164 174 165
3 165 160 159
3 174 161 160
3 157 158 175
3 153 175 158
3 152 157 175
3 176 178 179
3 180 179 181
3 181 178 182
3 183 185 186
3 187 186 188
3 183 189 184
3 190 192 193
3 194 193 195
3 195 192 196
3 197 195 196
3 191 196 192
3 197 190 194
3 189 188 198
3 184 198 185
3 185 188 186
3 199 181 182
3 177 182 178
3 199 176 180
3 200 202 203
3 204 203 205
3 206 208 209
3 210 211 212
3 213 212 214
3 204 217 218
3 202 219 220
3 217 222 218
3 223 224 216
3 214 225 224
3 212 226 225
3 209 227 211
3 228 216 224
3 205 229 222
3 203 220 229
3 230 201 200
3 218 200 204
3 214 221 215
3 226 207 206
3 232 209 210
3 233 210 213
3 228 213 215
3 223 222 221
3 227 207 231
3 204 223 216
3 224 232 233
3 225 206 232
3 211 231 226
3 215 217 228
3 222 230 218
3 229 219 230
3 234 236 237
3 238 237 239
3 240 239 241
3 242 241 243
3 244 243 245
3 246 245 247
3 248 247 250
3 251 250 252
3 253 255 256
3 257 256 258
3 259 258 260
3 261 260 262
3 263 262 264
3 265 264 266
3 267 255 254
3 269 271 272
3 270 273 271
3 266 274 269
3 264 275 274
3 262 276 275
3 260 277 276
3 258 278 277
3 256 268 278
3 279 248 251
3 252 244 246
3 280 242 244
3 281 240 242
3 282 238 240
3 283 234 238
3 284 235 234
3 237 286 287
3 239 287 288
3 241 288 289
3 243 289 290
3 245 290 291
3 247 291 250
3 279 252 246
3 249 246 247
3 292 254 253
3 293 253 257
3 294 257 259
3 295 259 261
3 296 261 263
3 270 263 265
3 273 272 271
3 265 297 273
3 266 272 297
3 269 296 270
3 274 295 296
3 275 294 295
3 276 293 294
3 277 292 293
3 278 267 292
3 285 236 235
3 250 280 252
3 291 281 280
3 290 282 281
3 289 283 282
3 288 284 283
3 287 285 284
